<svg width="54" height="54" viewBox="0 0 54 54" fill="none" xmlns="http://www.w3.org/2000/svg">
<path d="M27 0.499023C41.6354 0.499038 53.4998 12.3636 53.5 26.999C53.5 41.6346 41.6355 53.499 27 53.499C12.3644 53.499 0.5 41.6346 0.5 26.999C0.500207 12.3636 12.3646 0.499023 27 0.499023Z" fill="#951216" stroke="white"/>
<path d="M35.25 21.7272C35.427 22.2815 35.516 22.6195 35.516 22.7398V23.8036C35.516 24.6335 35.2586 25.5769 34.7448 26.6322C34.4255 27.2705 33.858 28.2222 33.0428 29.4847C32.4044 30.4546 31.9523 31.1789 31.6864 31.6639C31.6332 31.7514 31.527 31.8893 31.3675 32.081C31.2078 32.2693 31.1015 32.4085 31.0483 32.496L30.7558 32.9628C30.5429 33.3421 30.3833 33.6276 30.2771 33.8173L27.5114 38.4605C25.4903 35.2785 23.9831 32.8851 22.9904 31.2748C22.7952 30.948 22.476 30.4357 22.033 29.7443C21.2705 28.5357 20.7388 27.626 20.4377 27.0213C19.9231 26.0185 19.6132 25.1262 19.5067 24.3487L19.4802 23.9078V22.7916C19.6573 21.2877 20.1625 19.9728 20.996 18.8502C21.7405 17.8453 22.7067 17.0678 23.8946 16.5142C24.9937 15.9957 26.1551 15.7354 27.3784 15.7354C28.3178 15.7354 29.2398 15.8921 30.144 16.2049C31.1367 16.531 32.0143 17.0335 32.7769 17.7074C33.6278 18.4534 34.2927 19.3765 34.7712 20.4829L34.9309 20.8468C35.0374 21.089 35.108 21.2709 35.1437 21.3906L35.25 21.7272Z" fill="white"/>
<path fill-rule="evenodd" clip-rule="evenodd" d="M28.974 25.8792C29.4349 25.6203 29.8024 25.2697 30.0776 24.8288C30.3522 24.3872 30.4897 23.8994 30.4897 23.3634C30.4897 22.8266 30.3569 22.3388 30.0908 21.8973C29.825 21.4571 29.4702 21.1058 29.0272 20.8468C28.5839 20.5879 28.0872 20.457 27.538 20.457C27.0768 20.457 26.6338 20.5522 26.2083 20.7426C25.747 20.9322 25.3839 21.2093 25.118 21.5718C24.8163 21.9882 24.6659 22.4718 24.6659 23.0268V23.6727C24.648 24.0044 24.6659 24.2353 24.7191 24.3746C24.985 25.0156 25.3839 25.4992 25.9157 25.8274C26.3766 26.1228 26.8906 26.2683 27.4582 26.2683C28.0076 26.2683 28.5126 26.1388 28.974 25.8792Z" fill="white"/>
</svg>
