<svg width="54" height="54" viewBox="0 0 54 54" fill="none" xmlns="http://www.w3.org/2000/svg">
<path d="M27 0.5C41.6355 0.500014 53.5 12.3651 53.5 27C53.4998 41.6354 41.6354 53.5 27 53.5C12.3646 53.5 0.500171 41.6354 0.5 27C0.5 12.3651 12.3645 0.5 27 0.5Z" fill="#951216" stroke="white"/>
<path d="M16.9489 21.0636V20.2253C16.9489 19.5499 17.27 19.2119 17.9129 19.2119H37.0023C37.677 19.2119 38.0062 19.5597 37.9904 20.2518L38.0146 20.5822C38.0304 20.9195 38.0104 21.1602 37.9542 21.3072C37.8977 21.4492 37.7411 21.6298 37.4842 21.8516L37.2914 22.0273L27.8191 32.0228C27.6745 32.1599 27.5578 32.2327 27.4696 32.239C27.3812 32.2481 27.2649 32.176 27.1201 32.0228C25.6416 30.451 23.4162 28.1087 20.4437 24.9959C18.9495 23.4255 17.8322 22.2491 17.0933 21.4695C16.9808 21.3184 16.9326 21.1833 16.9489 21.0636Z" fill="white"/>
<path fill-rule="evenodd" clip-rule="evenodd" d="M37.7977 33.0123C37.926 33.1488 37.9941 33.2678 38.0024 33.3678C38.0104 33.4707 37.9821 33.6058 37.918 33.7737C37.7892 34.0628 37.5566 34.23 37.219 34.2811H17.8886C17.3744 34.2811 17.0692 34.0537 16.9729 33.5967C16.9247 33.3944 16.9568 33.2328 17.0692 33.1152L21.7934 28.1409C21.8254 28.1087 21.8657 28.0751 21.9141 28.0408C21.978 28.1409 22.0346 28.2186 22.0825 28.2676L26.4212 32.836C26.7425 33.1754 27.0918 33.3419 27.4696 33.3419C27.8469 33.3419 28.2048 33.1649 28.5421 32.8108L32.8806 28.2438C32.9125 28.2109 32.9609 28.1409 33.0253 28.0408L33.1697 28.1682C33.2019 28.2011 33.2258 28.2256 33.2422 28.2438C35.2668 30.3747 36.7852 31.9647 37.7977 33.0123Z" fill="white"/>
<path fill-rule="evenodd" clip-rule="evenodd" d="M16.9489 22.9419C18.7806 24.8706 20.1462 26.3249 21.0463 27.3046L16.9489 31.6176V22.9419Z" fill="white"/>
<path fill-rule="evenodd" clip-rule="evenodd" d="M33.893 27.2535L37.9904 22.9419V31.5924L33.893 27.2535Z" fill="white"/>
</svg>
