<svg width="54" height="54" viewBox="0 0 54 54" fill="none" xmlns="http://www.w3.org/2000/svg">
<path d="M27 0.5C41.6355 0.500014 53.5 12.3644 53.5 27C53.4998 41.6354 41.6354 53.5 27 53.5C12.3646 53.5 0.500171 41.6354 0.5 27C0.5 12.3644 12.3644 0.5 27 0.5Z" fill="#951216" stroke="white"/>
<path fill-rule="evenodd" clip-rule="evenodd" d="M26.6953 16.5732C32.0456 16.8424 34.7657 20.3117 36.3054 23.9979C36.6882 24.9136 37.5594 28.8105 36.2788 29.5672C35.7933 29.8536 35.019 29.6126 34.7904 29.2257C34.4222 28.5991 34.879 27.4349 34.7538 26.5805C34.5595 25.2517 34.0639 24.1342 33.4612 23.1545C32.4516 21.5166 30.9055 19.869 28.9372 19.1915C27.3093 18.6311 25.5366 19.069 25.2799 18.2972C24.8377 16.9677 25.8835 16.4589 26.6953 16.5732Z" fill="white"/>
<path fill-rule="evenodd" clip-rule="evenodd" d="M19.6982 18.145C21.2801 18.1574 23.5322 21.1462 22.8312 22.8034C22.4965 23.5938 21.4427 23.9119 21.2021 24.6782C20.9435 25.5037 21.7086 26.493 21.9964 26.9591C22.9013 28.4256 26.0699 32.2544 27.8766 32.6998C29.1623 33.0172 29.4699 30.4154 31.7074 31.5025C34.8034 33.0034 35.6649 35.4469 32.3406 37.6115C30.5935 38.7469 26.9511 36.6511 25.8771 35.9151C22.1196 33.3394 18.9932 29.689 17.1994 25.3708C16.2897 23.1807 16.0592 21.4835 16.8043 20.2043C17.312 19.3313 18.6018 18.3454 19.6982 18.145Z" fill="white"/>
<path fill-rule="evenodd" clip-rule="evenodd" d="M26.8057 20.6229C29.5912 20.7634 31.7878 23.2929 32.4339 25.1945C32.6665 25.8789 33.3176 27.5368 32.5687 28.2156C32.0118 28.7182 31.2535 28.4607 30.9507 27.9884C30.7031 27.5994 30.769 27.0177 30.6355 26.5226C30.3831 25.5856 29.7782 24.6238 29.1201 24.031C28.8466 23.7322 28.5108 23.4506 27.8689 23.1683C27.2709 22.8729 26.3207 22.8481 26.0053 22.3049C25.5052 21.445 26.1269 20.7221 26.8057 20.6229Z" fill="white"/>
</svg>
